<mxfile host="app.diagrams.net" modified="2021-11-30T08:33:01.588Z" agent="5.0 (Windows NT 6.1; Win64; x64) AppleWebKit/537.36 (KHTML, like Gecko) Chrome/95.0.4638.69 Safari/537.36" etag="uABGWdXLn-B6M9-9A3uv" version="15.6.8" type="github">
  <diagram id="C5RBs43oDa-KdzZeNtuy" name="Page-1">
    <mxGraphModel dx="965" dy="689" grid="1" gridSize="10" guides="1" tooltips="1" connect="1" arrows="1" fold="1" page="1" pageScale="1" pageWidth="827" pageHeight="1169" math="0" shadow="0">
      <root>
        <mxCell id="WIyWlLk6GJQsqaUBKTNV-0" />
        <mxCell id="WIyWlLk6GJQsqaUBKTNV-1" parent="WIyWlLk6GJQsqaUBKTNV-0" />
        <mxCell id="fi0k0eFgs-iiYxlXGeYG-0" style="edgeStyle=orthogonalEdgeStyle;rounded=0;orthogonalLoop=1;jettySize=auto;html=1;entryX=0.5;entryY=0;entryDx=0;entryDy=0;endArrow=none;endFill=0;exitX=0.5;exitY=1;exitDx=0;exitDy=0;" edge="1" parent="WIyWlLk6GJQsqaUBKTNV-1" source="fi0k0eFgs-iiYxlXGeYG-1" target="fi0k0eFgs-iiYxlXGeYG-23">
          <mxGeometry relative="1" as="geometry">
            <mxPoint x="400" y="410" as="sourcePoint" />
            <Array as="points">
              <mxPoint x="400" y="400" />
              <mxPoint x="540" y="400" />
            </Array>
          </mxGeometry>
        </mxCell>
        <mxCell id="fi0k0eFgs-iiYxlXGeYG-1" value="" style="shape=hexagon;perimeter=hexagonPerimeter2;whiteSpace=wrap;html=1;fixedSize=1;" vertex="1" parent="WIyWlLk6GJQsqaUBKTNV-1">
          <mxGeometry x="310" y="300" width="200" height="80" as="geometry" />
        </mxCell>
        <mxCell id="fi0k0eFgs-iiYxlXGeYG-2" value="" style="edgeStyle=orthogonalEdgeStyle;rounded=0;orthogonalLoop=1;jettySize=auto;html=1;" edge="1" parent="WIyWlLk6GJQsqaUBKTNV-1" source="fi0k0eFgs-iiYxlXGeYG-3" target="fi0k0eFgs-iiYxlXGeYG-12">
          <mxGeometry relative="1" as="geometry" />
        </mxCell>
        <mxCell id="fi0k0eFgs-iiYxlXGeYG-3" value="START" style="ellipse;whiteSpace=wrap;html=1;" vertex="1" parent="WIyWlLk6GJQsqaUBKTNV-1">
          <mxGeometry x="350" y="50" width="120" height="60" as="geometry" />
        </mxCell>
        <mxCell id="fi0k0eFgs-iiYxlXGeYG-4" value="" style="edgeStyle=orthogonalEdgeStyle;rounded=0;orthogonalLoop=1;jettySize=auto;html=1;entryX=0.5;entryY=0;entryDx=0;entryDy=0;" edge="1" parent="WIyWlLk6GJQsqaUBKTNV-1" source="fi0k0eFgs-iiYxlXGeYG-5" target="fi0k0eFgs-iiYxlXGeYG-1">
          <mxGeometry relative="1" as="geometry">
            <mxPoint x="230" y="240" as="targetPoint" />
          </mxGeometry>
        </mxCell>
        <mxCell id="fi0k0eFgs-iiYxlXGeYG-5" value="Wczytaj n archetypów" style="shape=parallelogram;perimeter=parallelogramPerimeter;whiteSpace=wrap;html=1;fixedSize=1;" vertex="1" parent="WIyWlLk6GJQsqaUBKTNV-1">
          <mxGeometry x="340" y="210" width="140" height="60" as="geometry" />
        </mxCell>
        <mxCell id="fi0k0eFgs-iiYxlXGeYG-11" value="" style="edgeStyle=orthogonalEdgeStyle;rounded=0;orthogonalLoop=1;jettySize=auto;html=1;" edge="1" parent="WIyWlLk6GJQsqaUBKTNV-1" source="fi0k0eFgs-iiYxlXGeYG-12" target="fi0k0eFgs-iiYxlXGeYG-5">
          <mxGeometry relative="1" as="geometry" />
        </mxCell>
        <mxCell id="fi0k0eFgs-iiYxlXGeYG-12" value="Wczytaj listę m klas" style="shape=parallelogram;perimeter=parallelogramPerimeter;whiteSpace=wrap;html=1;fixedSize=1;" vertex="1" parent="WIyWlLk6GJQsqaUBKTNV-1">
          <mxGeometry x="345" y="130" width="130" height="60" as="geometry" />
        </mxCell>
        <mxCell id="fi0k0eFgs-iiYxlXGeYG-18" value="T" style="edgeStyle=orthogonalEdgeStyle;rounded=0;orthogonalLoop=1;jettySize=auto;html=1;" edge="1" parent="WIyWlLk6GJQsqaUBKTNV-1" source="fi0k0eFgs-iiYxlXGeYG-19" target="fi0k0eFgs-iiYxlXGeYG-34">
          <mxGeometry x="0.2" y="10" relative="1" as="geometry">
            <mxPoint as="offset" />
            <mxPoint x="540" y="580" as="targetPoint" />
          </mxGeometry>
        </mxCell>
        <mxCell id="fi0k0eFgs-iiYxlXGeYG-19" value="j&amp;lt;l" style="rhombus;whiteSpace=wrap;html=1;" vertex="1" parent="WIyWlLk6GJQsqaUBKTNV-1">
          <mxGeometry x="500" y="470" width="80" height="80" as="geometry" />
        </mxCell>
        <mxCell id="fi0k0eFgs-iiYxlXGeYG-20" value="" style="edgeStyle=orthogonalEdgeStyle;rounded=0;orthogonalLoop=1;jettySize=auto;html=1;" edge="1" parent="WIyWlLk6GJQsqaUBKTNV-1" source="fi0k0eFgs-iiYxlXGeYG-23" target="fi0k0eFgs-iiYxlXGeYG-19">
          <mxGeometry relative="1" as="geometry" />
        </mxCell>
        <mxCell id="fi0k0eFgs-iiYxlXGeYG-21" style="edgeStyle=orthogonalEdgeStyle;rounded=0;orthogonalLoop=1;jettySize=auto;html=1;entryX=0.5;entryY=0;entryDx=0;entryDy=0;endArrow=none;endFill=0;exitX=1;exitY=0.5;exitDx=0;exitDy=0;" edge="1" parent="WIyWlLk6GJQsqaUBKTNV-1" source="fi0k0eFgs-iiYxlXGeYG-19" target="fi0k0eFgs-iiYxlXGeYG-31">
          <mxGeometry relative="1" as="geometry" />
        </mxCell>
        <mxCell id="fi0k0eFgs-iiYxlXGeYG-22" value="N" style="edgeLabel;html=1;align=center;verticalAlign=middle;resizable=0;points=[];" vertex="1" connectable="0" parent="fi0k0eFgs-iiYxlXGeYG-21">
          <mxGeometry x="-0.4235" y="-1" relative="1" as="geometry">
            <mxPoint x="-29" y="-11" as="offset" />
          </mxGeometry>
        </mxCell>
        <mxCell id="fi0k0eFgs-iiYxlXGeYG-23" value="j = 0" style="rounded=0;whiteSpace=wrap;html=1;" vertex="1" parent="WIyWlLk6GJQsqaUBKTNV-1">
          <mxGeometry x="480" y="410" width="120" height="30" as="geometry" />
        </mxCell>
        <mxCell id="fi0k0eFgs-iiYxlXGeYG-25" style="edgeStyle=orthogonalEdgeStyle;rounded=0;orthogonalLoop=1;jettySize=auto;html=1;endArrow=none;endFill=0;" edge="1" parent="WIyWlLk6GJQsqaUBKTNV-1" source="fi0k0eFgs-iiYxlXGeYG-26">
          <mxGeometry relative="1" as="geometry">
            <mxPoint x="360" y="450" as="targetPoint" />
            <Array as="points">
              <mxPoint x="360" y="760" />
              <mxPoint x="360" y="760" />
            </Array>
          </mxGeometry>
        </mxCell>
        <mxCell id="fi0k0eFgs-iiYxlXGeYG-26" value="j++" style="whiteSpace=wrap;html=1;" vertex="1" parent="WIyWlLk6GJQsqaUBKTNV-1">
          <mxGeometry x="490" y="790" width="120" height="30" as="geometry" />
        </mxCell>
        <mxCell id="fi0k0eFgs-iiYxlXGeYG-27" value="" style="endArrow=classic;html=1;rounded=0;" edge="1" parent="WIyWlLk6GJQsqaUBKTNV-1">
          <mxGeometry width="50" height="50" relative="1" as="geometry">
            <mxPoint x="360" y="450" as="sourcePoint" />
            <mxPoint x="540" y="450" as="targetPoint" />
          </mxGeometry>
        </mxCell>
        <mxCell id="fi0k0eFgs-iiYxlXGeYG-28" value="STOP" style="ellipse;whiteSpace=wrap;html=1;" vertex="1" parent="WIyWlLk6GJQsqaUBKTNV-1">
          <mxGeometry x="740" y="650" width="120" height="60" as="geometry" />
        </mxCell>
        <mxCell id="fi0k0eFgs-iiYxlXGeYG-30" value="" style="edgeStyle=orthogonalEdgeStyle;rounded=0;orthogonalLoop=1;jettySize=auto;html=1;endArrow=none;endFill=0;" edge="1" parent="WIyWlLk6GJQsqaUBKTNV-1" source="fi0k0eFgs-iiYxlXGeYG-31" target="fi0k0eFgs-iiYxlXGeYG-28">
          <mxGeometry relative="1" as="geometry" />
        </mxCell>
        <mxCell id="fi0k0eFgs-iiYxlXGeYG-31" value="Lista wszystkich możliwych zestawień turniejowych" style="shape=parallelogram;perimeter=parallelogramPerimeter;whiteSpace=wrap;html=1;fixedSize=1;" vertex="1" parent="WIyWlLk6GJQsqaUBKTNV-1">
          <mxGeometry x="710" y="530" width="180" height="60" as="geometry" />
        </mxCell>
        <mxCell id="fi0k0eFgs-iiYxlXGeYG-32" value="Trzyelementowe kombinacje bez powtórzeń elementów ze zbioru n archetypów zapisane do nowej listy a, o długości l" style="rounded=0;whiteSpace=wrap;html=1;" vertex="1" parent="WIyWlLk6GJQsqaUBKTNV-1">
          <mxGeometry x="90" y="290" width="180" height="90" as="geometry" />
        </mxCell>
        <mxCell id="fi0k0eFgs-iiYxlXGeYG-33" value="" style="endArrow=none;dashed=1;html=1;rounded=0;entryX=1.011;entryY=0.578;entryDx=0;entryDy=0;exitX=0;exitY=0.5;exitDx=0;exitDy=0;entryPerimeter=0;" edge="1" parent="WIyWlLk6GJQsqaUBKTNV-1" source="fi0k0eFgs-iiYxlXGeYG-1" target="fi0k0eFgs-iiYxlXGeYG-32">
          <mxGeometry width="50" height="50" relative="1" as="geometry">
            <mxPoint x="410" y="380" as="sourcePoint" />
            <mxPoint x="460" y="330" as="targetPoint" />
          </mxGeometry>
        </mxCell>
        <mxCell id="fi0k0eFgs-iiYxlXGeYG-36" value="" style="edgeStyle=orthogonalEdgeStyle;rounded=0;orthogonalLoop=1;jettySize=auto;html=1;" edge="1" parent="WIyWlLk6GJQsqaUBKTNV-1" source="fi0k0eFgs-iiYxlXGeYG-34" target="fi0k0eFgs-iiYxlXGeYG-35">
          <mxGeometry relative="1" as="geometry">
            <Array as="points">
              <mxPoint x="460" y="635" />
            </Array>
          </mxGeometry>
        </mxCell>
        <mxCell id="fi0k0eFgs-iiYxlXGeYG-43" value="T" style="edgeLabel;html=1;align=center;verticalAlign=middle;resizable=0;points=[];" vertex="1" connectable="0" parent="fi0k0eFgs-iiYxlXGeYG-36">
          <mxGeometry x="-0.04" y="2" relative="1" as="geometry">
            <mxPoint x="8" y="-31" as="offset" />
          </mxGeometry>
        </mxCell>
        <mxCell id="fi0k0eFgs-iiYxlXGeYG-38" value="N" style="edgeStyle=orthogonalEdgeStyle;rounded=0;orthogonalLoop=1;jettySize=auto;html=1;entryX=0.558;entryY=0.033;entryDx=0;entryDy=0;entryPerimeter=0;" edge="1" parent="WIyWlLk6GJQsqaUBKTNV-1" source="fi0k0eFgs-iiYxlXGeYG-34" target="fi0k0eFgs-iiYxlXGeYG-26">
          <mxGeometry x="-0.7647" y="15" relative="1" as="geometry">
            <mxPoint x="630" y="690" as="targetPoint" />
            <Array as="points">
              <mxPoint x="630" y="635" />
              <mxPoint x="630" y="770" />
              <mxPoint x="557" y="770" />
            </Array>
            <mxPoint as="offset" />
          </mxGeometry>
        </mxCell>
        <mxCell id="fi0k0eFgs-iiYxlXGeYG-34" value="Czy zestawienie zawiera więcej niż jedną talię danej klasy" style="rhombus;whiteSpace=wrap;html=1;" vertex="1" parent="WIyWlLk6GJQsqaUBKTNV-1">
          <mxGeometry x="480" y="580" width="120" height="110" as="geometry" />
        </mxCell>
        <mxCell id="fi0k0eFgs-iiYxlXGeYG-40" style="edgeStyle=orthogonalEdgeStyle;rounded=0;orthogonalLoop=1;jettySize=auto;html=1;entryX=0.45;entryY=0.033;entryDx=0;entryDy=0;entryPerimeter=0;" edge="1" parent="WIyWlLk6GJQsqaUBKTNV-1" source="fi0k0eFgs-iiYxlXGeYG-35" target="fi0k0eFgs-iiYxlXGeYG-26">
          <mxGeometry relative="1" as="geometry" />
        </mxCell>
        <mxCell id="fi0k0eFgs-iiYxlXGeYG-35" value="Usunąć nieprzepisowe zestawienie turniejowe" style="whiteSpace=wrap;html=1;" vertex="1" parent="WIyWlLk6GJQsqaUBKTNV-1">
          <mxGeometry x="390" y="690" width="140" height="60" as="geometry" />
        </mxCell>
      </root>
    </mxGraphModel>
  </diagram>
</mxfile>
